#N canvas 119 69 1308 726 10;
#X obj 523 37 dumpOSC 5555;
#X obj 399 100 print;
#X obj 603 142 sel 1 2 3 4 5;
#X obj 602 182 bng 15 250 50 0 empty empty empty 17 7 0 10 -262144
-1 -1;
#X obj 630 182 bng 15 250 50 0 empty empty empty 17 7 0 10 -262144
-1 -1;
#X obj 658 183 bng 15 250 50 0 empty empty empty 17 7 0 10 -262144
-1 -1;
#X obj 683 184 bng 15 250 50 0 empty empty empty 17 7 0 10 -262144
-1 -1;
#X obj 710 184 bng 15 250 50 0 empty empty empty 17 7 0 10 -262144
-1 -1;
#X obj 484 105 OSCroute /start;
#X obj 99 46 notein;
#X floatatom 70 107 5 0 0 0 - - -;
#X floatatom 112 106 5 0 0 0 - - -;
#X obj 73 228 pack f f;
#X text 68 79 note velocity channel;
#X floatatom 159 103 5 0 0 0 - - -;
#X obj 108 573 seq;
#X msg 174 347 record;
#X obj 732 182 bng 15 250 50 0 empty empty empty 17 7 0 10 -262144
-1 -1;
#X msg 359 351 stop record;
#X obj 310 306 t b b;
#X msg 254 351 write test1.mid;
#X msg 551 348 stop record;
#X obj 499 307 t b b;
#X msg 444 349 write test2.mid;
#X obj 444 162 bng 15 250 50 0 empty empty empty 17 7 0 10 -262144
-1 -1;
#X obj 598 104 OSCroute /write;
#X obj 71 337 midiformat;
#X text 542 248 comment;
#X msg 749 347 stop record;
#X obj 697 306 t b b;
#X msg 943 344 stop record;
#X obj 891 303 t b b;
#X msg 1141 342 stop record;
#X obj 1089 301 t b b;
#X msg 642 348 write test3.mid;
#X msg 836 345 write test4.mid;
#X msg 1034 343 write test5.mid;
#X obj 99 185 noteout;
#X connect 0 0 1 0;
#X connect 0 0 8 0;
#X connect 0 0 25 0;
#X connect 2 0 3 0;
#X connect 2 1 4 0;
#X connect 2 2 5 0;
#X connect 2 3 6 0;
#X connect 2 4 7 0;
#X connect 2 5 17 0;
#X connect 3 0 19 0;
#X connect 4 0 22 0;
#X connect 5 0 29 0;
#X connect 6 0 31 0;
#X connect 7 0 33 0;
#X connect 8 0 24 0;
#X connect 9 0 10 0;
#X connect 9 1 11 0;
#X connect 9 2 14 0;
#X connect 10 0 12 0;
#X connect 10 0 37 0;
#X connect 11 0 12 1;
#X connect 11 0 37 1;
#X connect 12 0 26 0;
#X connect 16 0 15 0;
#X connect 18 0 15 0;
#X connect 19 0 20 0;
#X connect 19 1 18 0;
#X connect 20 0 15 0;
#X connect 21 0 15 0;
#X connect 22 0 23 0;
#X connect 22 1 21 0;
#X connect 23 0 15 0;
#X connect 24 0 16 0;
#X connect 25 0 2 0;
#X connect 26 0 15 0;
#X connect 28 0 15 0;
#X connect 29 0 34 0;
#X connect 29 1 28 0;
#X connect 30 0 15 0;
#X connect 31 0 35 0;
#X connect 31 1 30 0;
#X connect 32 0 15 0;
#X connect 33 0 36 0;
#X connect 33 1 32 0;
#X connect 34 0 15 0;
#X connect 35 0 15 0;
#X connect 36 0 15 0;
